<?xml version="1.0" standalone="no"?>
<!DOCTYPE svg PUBLIC "-//W3C//DTD SVG 20010904//EN"
 "http://www.w3.org/TR/2001/REC-SVG-20010904/DTD/svg10.dtd">
<svg version="1.0" xmlns="http://www.w3.org/2000/svg"
 width="500.000000pt" height="500.000000pt" viewBox="0 0 500.000000 500.000000"
 preserveAspectRatio="xMidYMid meet">

<g transform="translate(0.000000,500.000000) scale(0.100000,-0.100000)"
fill="#000000" stroke="none">
<path d="M2325 4994 c-367 -36 -636 -109 -920 -249 -761 -373 -1270 -1084
-1386 -1935 -17 -123 -17 -497 0 -620 77 -565 321 -1061 715 -1456 397 -396
882 -634 1461 -716 50 -7 186 -12 305 -12 302 0 521 34 795 125 628 209 1154
671 1450 1274 384 781 328 1722 -146 2450 -397 611 -1029 1015 -1754 1121 -98
14 -440 26 -520 18z m438 -159 c543 -63 1014 -291 1398 -674 465 -466 708
-1081 686 -1736 -12 -349 -87 -653 -237 -960 -59 -120 -157 -284 -204 -340
l-25 -30 -1 937 0 938 -432 2 -433 3 -3 593 -2 592 -1010 0 -1010 0 0 -595 0
-595 -435 0 -435 0 0 -936 c0 -612 -3 -933 -10 -929 -17 10 -135 195 -188 295
-384 719 -359 1614 65 2315 176 291 451 574 738 760 451 292 1007 422 1538
360z m287 -1730 l0 -595 435 0 435 0 0 -710 0 -710 23 -1 c12 -1 113 -1 225
-2 111 0 202 -3 202 -7 0 -15 -121 -153 -219 -250 -914 -907 -2388 -907 -3302
0 -98 97 -219 235 -219 250 0 4 91 7 203 7 111 1 212 2 225 2 l22 1 0 710 0
710 435 0 435 0 0 595 0 595 550 0 550 0 0 -595z"/>
</g>
</svg>
